<svg width="563" height="385" viewBox="0 0 563 385" fill="none" xmlns="http://www.w3.org/2000/svg">
<g id="undraw_Friends_online_re_r7pq 1">
<path id="Vector" d="M458.889 384.304H449.791C448.647 384.303 447.55 383.826 446.741 382.977C445.932 382.129 445.477 380.979 445.476 379.779V300.25C445.477 299.051 445.932 297.9 446.741 297.052C447.55 296.204 448.647 295.726 449.791 295.725H458.889C460.033 295.726 461.13 296.204 461.939 297.052C462.748 297.9 463.203 299.051 463.204 300.25V379.779C463.203 380.979 462.748 382.129 461.939 382.977C461.13 383.826 460.033 384.303 458.889 384.304V384.304Z" fill="#6C63FF"/>
<path id="Vector_2" d="M478.117 384.304H469.019C467.875 384.303 466.778 383.826 465.969 382.977C465.16 382.129 464.705 380.979 464.704 379.779V300.25C464.705 299.051 465.16 297.9 465.969 297.052C466.778 296.204 467.875 295.726 469.019 295.725H478.117C479.261 295.726 480.358 296.204 481.167 297.052C481.976 297.9 482.431 299.051 482.432 300.25V379.779C482.431 380.979 481.976 382.129 481.167 382.977C480.358 383.826 479.261 384.303 478.117 384.304V384.304Z" fill="#6C63FF"/>
<path id="Vector_3" d="M481.202 325.411H446.065C444.676 325.409 443.344 324.83 442.362 323.8C441.38 322.769 440.827 321.373 440.825 319.916V309.572C440.827 308.115 441.38 306.718 442.362 305.688C443.344 304.658 444.676 304.078 446.065 304.076H481.202C482.591 304.078 483.923 304.658 484.906 305.688C485.888 306.718 486.44 308.115 486.442 309.572V319.916C486.44 321.373 485.888 322.769 484.906 323.8C483.923 324.83 482.591 325.409 481.202 325.411V325.411Z" fill="#2F2E41"/>
<path id="Vector_4" d="M466.929 132.575C468.003 121.352 475.035 110.62 485.772 107.699C491.011 106.24 496.573 106.77 501.476 109.193C505.914 111.541 509.404 115.48 511.311 120.294C513.194 125.057 513.915 130.237 513.409 135.365C512.835 140.97 511.129 146.382 508.405 151.24C505.492 156.625 501.706 161.439 497.731 165.99C493.681 170.628 489.099 174.895 485.692 180.101C482.669 184.719 480.239 190.99 483.217 196.305C484.385 198.254 486.063 199.808 488.051 200.782C490.039 201.756 492.252 202.108 494.426 201.796C495.493 201.626 496.524 201.267 497.476 200.735C498.525 200.147 499.46 201.821 498.409 202.409C494.421 204.642 489.461 204.136 485.693 201.625C481.35 198.73 479.412 193.622 480.226 188.341C481.154 182.32 485.157 177.15 489.001 172.816C493.016 168.289 497.221 163.966 500.94 159.157C504.614 154.406 507.894 149.162 509.86 143.371C511.512 138.531 512.062 133.353 511.469 128.251C510.883 123.378 509.076 118.549 505.835 114.944C504.043 113.008 501.898 111.469 499.527 110.42C497.157 109.371 494.609 108.833 492.036 108.837C486.696 108.766 481.518 110.762 477.494 114.445C473.526 118.167 470.726 123.062 469.463 128.486C469.14 129.83 468.912 131.196 468.779 132.575C468.661 133.805 466.81 133.818 466.929 132.575H466.929Z" fill="#2F2E41"/>
<path id="Vector_5" d="M472.813 132.129L464.033 129.089C463.61 128.943 463.219 128.71 462.881 128.406C462.544 128.101 462.267 127.729 462.067 127.312C461.867 126.895 461.747 126.44 461.714 125.975C461.681 125.509 461.736 125.041 461.875 124.597C462.015 124.154 462.237 123.744 462.528 123.39C462.818 123.036 463.173 122.746 463.571 122.536C463.968 122.326 464.402 122.201 464.846 122.166C465.29 122.132 465.736 122.19 466.159 122.337L474.939 125.377C475.363 125.523 475.754 125.755 476.092 126.06C476.43 126.365 476.707 126.736 476.908 127.154C477.108 127.571 477.229 128.026 477.262 128.492C477.295 128.958 477.24 129.426 477.1 129.87C476.96 130.313 476.739 130.724 476.447 131.078C476.156 131.432 475.802 131.722 475.403 131.932C475.005 132.141 474.572 132.267 474.127 132.301C473.683 132.335 473.236 132.277 472.813 132.129H472.813Z" fill="#2F2E41"/>
<path id="Vector_6" d="M298.959 252.162C293.624 252.162 288.305 251.527 283.106 250.271C280.432 249.621 277.798 248.806 275.215 247.831H275.215L275.107 247.792C271.789 246.531 268.567 245.009 265.467 243.239C264.671 242.79 263.866 242.308 263.077 241.81C262.534 241.473 261.999 241.128 261.465 240.775C251.136 233.931 242.687 224.382 236.951 213.068C231.215 201.755 228.391 189.069 228.756 176.261C229.121 163.454 232.664 150.967 239.034 140.034C245.405 129.1 254.383 120.097 265.083 113.913C275.783 107.729 287.836 104.577 300.052 104.768C312.268 104.959 324.226 108.487 334.745 115.003C345.264 121.52 353.982 130.8 360.039 141.928C366.095 153.056 369.281 165.648 369.281 178.461V178.461C369.249 191.106 366.13 203.531 360.222 214.554C354.314 225.578 345.814 234.831 335.531 241.433C334.324 242.205 333.079 242.945 331.726 243.695C329.887 244.717 328.007 245.646 326.134 246.462L325.786 246.618C325.138 246.899 324.49 247.167 323.836 247.422C323.538 247.543 323.225 247.667 322.912 247.786C315.253 250.686 307.171 252.167 299.028 252.162H298.959ZM275.43 246.54L275.533 246.576C278.101 247.551 280.723 248.364 283.384 249.011C288.492 250.245 293.717 250.869 298.96 250.869C298.982 250.869 299.005 250.871 299.027 250.869C307.028 250.874 314.969 249.419 322.494 246.57C322.797 246.455 323.101 246.334 323.398 246.213C323.917 246.011 324.427 245.803 324.935 245.587V245.586L325.318 245.416C327.269 244.58 329.231 243.618 331.149 242.553C332.48 241.815 333.703 241.087 334.89 240.329C344.992 233.843 353.344 224.752 359.148 213.922C364.952 203.093 368.016 190.885 368.048 178.462V178.461C368.048 165.873 364.918 153.502 358.968 142.569C353.018 131.636 344.453 122.519 334.118 116.117C323.783 109.715 312.036 106.249 300.034 106.061C288.032 105.873 276.191 108.969 265.679 115.045C255.166 121.121 246.346 129.965 240.087 140.707C233.828 151.449 230.348 163.716 229.988 176.298C229.629 188.881 232.404 201.345 238.039 212.46C243.674 223.575 251.974 232.957 262.122 239.681C262.646 240.027 263.171 240.366 263.709 240.7C264.485 241.19 265.272 241.661 266.054 242.102C269.07 243.824 272.204 245.307 275.43 246.54L275.43 246.54Z" fill="#E6E6E6"/>
<path id="Vector_7" d="M171.972 147.429C166.637 147.428 161.319 146.794 156.119 145.538C153.446 144.888 150.811 144.073 148.228 143.097H148.228L148.12 143.059C144.802 141.798 141.58 140.275 138.48 138.506C137.684 138.057 136.879 137.575 136.09 137.076C135.547 136.74 135.013 136.394 134.478 136.042C124.149 129.198 115.7 119.648 109.964 108.335C104.228 97.0216 101.404 84.3355 101.769 71.5279C102.135 58.7204 105.677 46.234 112.047 35.3005C118.418 24.3669 127.396 15.3639 138.096 9.17959C148.796 2.99526 160.849 -0.156744 173.065 0.0345032C185.281 0.22575 197.239 3.75365 207.758 10.2702C218.278 16.7867 226.995 26.0667 233.052 37.1948C239.108 48.323 242.294 60.9147 242.294 73.7279V73.7273C242.262 86.3723 239.143 98.7981 233.235 109.821C227.327 120.844 218.827 130.098 208.544 136.7C207.337 137.472 206.092 138.212 204.739 138.962C202.9 139.984 201.02 140.913 199.147 141.729L198.8 141.885C198.151 142.166 197.503 142.434 196.849 142.688C196.551 142.81 196.238 142.934 195.926 143.053C188.266 145.952 180.184 147.433 172.041 147.429C172.018 147.428 171.996 147.429 171.972 147.429ZM148.443 141.806L148.546 141.843C151.114 142.818 153.736 143.631 156.397 144.277C161.505 145.512 166.731 146.136 171.973 146.136C171.995 146.136 172.018 146.137 172.041 146.136C180.041 146.14 187.982 144.685 195.507 141.837C195.81 141.722 196.114 141.601 196.411 141.479C196.93 141.277 197.44 141.07 197.948 140.854V140.853L198.331 140.683C200.282 139.847 202.244 138.884 204.163 137.819C205.493 137.081 206.717 136.354 207.903 135.596C218.006 129.109 226.357 120.018 232.161 109.189C237.965 98.3593 241.029 86.1517 241.062 73.7285V73.7279C241.061 61.1395 237.931 48.7688 231.981 37.8359C226.031 26.9031 217.466 17.7859 207.131 11.3837C196.797 4.98143 185.049 1.51536 173.047 1.32736C161.046 1.13935 149.204 4.23591 138.692 10.3116C128.18 16.3872 119.359 25.2321 113.1 35.9737C106.841 46.7153 103.361 58.9825 103.002 71.5652C102.643 84.148 105.417 96.6115 111.052 107.726C116.687 118.841 124.988 128.224 135.135 134.948C135.659 135.293 136.184 135.632 136.722 135.966C137.498 136.457 138.286 136.928 139.067 137.369C142.083 139.091 145.217 140.574 148.443 141.806V141.806Z" fill="#E6E6E6"/>
<path id="Vector_8" d="M70.2599 296.125C64.9245 296.124 59.6063 295.489 54.407 294.233C51.7332 293.583 49.0983 292.768 46.5161 291.793H46.5158L46.4077 291.754C43.0899 290.493 39.8675 288.971 36.768 287.201C35.9716 286.752 35.1664 286.27 34.3778 285.772C33.8351 285.435 33.3003 285.09 32.7654 284.738C22.4368 277.893 13.9878 268.344 8.25199 257.03C2.51614 245.717 -0.308452 233.031 0.0568489 220.223C0.42215 207.416 3.96472 194.929 10.3351 183.996C16.7055 173.062 25.6836 164.059 36.3838 157.875C47.084 151.691 59.1366 148.539 71.3527 148.73C83.5688 148.921 95.5263 152.449 106.046 158.966C116.565 165.482 125.283 174.762 131.339 185.89C137.396 197.018 140.581 209.61 140.582 222.423V222.423C140.55 235.068 137.431 247.494 131.523 258.517C125.615 269.54 117.115 278.793 106.832 285.395C105.624 286.168 104.38 286.907 103.027 287.657C101.187 288.679 99.3076 289.608 97.4345 290.424L97.0871 290.58C96.4391 290.861 95.791 291.129 95.137 291.384C94.839 291.505 94.526 291.629 94.2132 291.748C86.5538 294.648 78.472 296.129 70.3289 296.125C70.306 296.125 70.2831 296.125 70.2599 296.125ZM46.731 290.502L46.834 290.538C49.4021 291.514 52.0237 292.326 54.6845 292.973C59.7929 294.207 65.0182 294.831 70.2605 294.832C70.2828 294.833 70.3045 294.832 70.3282 294.832C78.3289 294.836 86.2694 293.381 93.7948 290.532C94.0979 290.417 94.4013 290.297 94.699 290.175C95.2179 289.973 95.7275 289.765 96.2353 289.549V289.548L96.6188 289.378C98.5698 288.543 100.532 287.58 102.45 286.515C103.781 285.777 105.004 285.049 106.191 284.291C116.293 277.805 124.644 268.714 130.449 257.884C136.253 247.055 139.317 234.847 139.349 222.424V222.423C139.349 209.835 136.219 197.464 130.269 186.531C124.319 175.599 115.754 166.481 105.419 160.079C95.0843 153.677 83.3367 150.211 71.335 150.023C59.3332 149.835 47.4921 152.931 36.9796 159.007C26.4672 165.083 17.6465 173.928 11.3877 184.669C5.12899 195.411 1.64839 207.678 1.28927 220.261C0.930152 232.843 3.70492 245.307 9.33988 256.422C14.9748 267.537 23.2753 276.919 33.4225 283.643C33.9468 283.989 34.472 284.328 35.0099 284.662C35.7859 285.152 36.5733 285.623 37.355 286.064C40.3706 287.786 43.5047 289.269 46.731 290.502V290.502Z" fill="#E6E6E6"/>
<path id="Vector_9" d="M464.087 201.78C482.308 201.78 497.079 186.289 497.079 167.18C497.079 148.07 482.308 132.579 464.087 132.579C445.867 132.579 431.096 148.07 431.096 167.18C431.096 186.289 445.867 201.78 464.087 201.78Z" fill="#6C63FF"/>
<path id="Vector_10" d="M378.145 275.967C377.694 275.967 377.245 275.892 376.816 275.746C376.275 275.565 375.775 275.274 375.343 274.888C374.911 274.503 374.557 274.032 374.3 273.501L370.154 265.007C369.896 264.478 369.74 263.901 369.695 263.309C369.649 262.716 369.715 262.12 369.89 261.555C370.064 260.989 370.342 260.465 370.71 260.013C371.077 259.56 371.526 259.188 372.03 258.917L439.532 222.682C440.551 222.135 441.736 222.036 442.825 222.404C443.914 222.773 444.819 223.581 445.34 224.649L449.485 233.144C450.007 234.212 450.102 235.454 449.75 236.596C449.399 237.738 448.629 238.687 447.611 239.234L380.108 275.469C379.501 275.797 378.828 275.968 378.145 275.967V275.967Z" fill="#6C63FF"/>
<path id="Vector_11" d="M492.298 310.541H436.202C434.813 310.54 433.481 309.96 432.499 308.93C431.516 307.9 430.964 306.503 430.962 305.046V243.305C430.962 234.046 434.469 225.166 440.712 218.619C446.955 212.072 455.422 208.394 464.25 208.394C473.079 208.394 481.546 212.072 487.788 218.619C494.031 225.166 497.538 234.046 497.538 243.305V305.046C497.536 306.503 496.984 307.9 496.001 308.93C495.019 309.96 493.687 310.54 492.298 310.541V310.541Z" fill="#CCCCCC"/>
<path id="Vector_12" d="M470.823 303.831C470.781 303.831 470.738 303.831 470.695 303.829L461.6 303.554C460.456 303.519 459.372 303.008 458.587 302.136C457.801 301.263 457.379 300.098 457.412 298.899L459.607 219.403C459.622 218.809 459.749 218.224 459.981 217.681C460.213 217.139 460.546 216.65 460.959 216.243C461.042 216.16 461.129 216.081 461.218 216.006C462.017 215.332 463.02 214.979 464.046 215.011L473.14 215.287C474.284 215.323 475.367 215.834 476.152 216.706C476.937 217.579 477.36 218.743 477.329 219.942L475.133 299.438C475.099 300.614 474.631 301.73 473.826 302.55C473.022 303.37 471.945 303.829 470.823 303.831V303.831Z" fill="#6C63FF"/>
<path id="Vector_13" d="M462.027 213.273C462.768 212.644 463.701 212.316 464.654 212.348L473.748 212.624C474.809 212.658 475.815 213.132 476.544 213.942C477.274 214.752 477.666 215.833 477.637 216.947L479.757 253.773C479.725 254.887 479.273 255.942 478.5 256.706C477.728 257.471 476.697 257.883 475.635 257.851L475.635 257.852L458.527 257.575C458.001 257.559 457.483 257.435 457.003 257.209C456.523 256.983 456.09 256.66 455.729 256.259C455.368 255.858 455.085 255.386 454.898 254.87C454.711 254.354 454.623 253.805 454.638 253.253L458.394 217.122C458.425 216 461.009 214.263 461.787 213.492C461.865 213.415 461.945 213.342 462.027 213.273Z" fill="#CCCCCC"/>
<path id="Vector_14" d="M449.236 219.845C450.117 220.227 450.838 220.929 451.267 221.822L455.386 230.329C455.866 231.323 455.95 232.476 455.62 233.536C455.29 234.595 454.574 235.474 453.627 235.979L423.805 255.548C422.857 256.051 421.758 256.14 420.748 255.794C419.738 255.448 418.9 254.696 418.419 253.703L418.418 253.703L410.466 237.814C410.228 237.322 410.084 236.786 410.043 236.236C410.003 235.685 410.066 235.132 410.229 234.608C410.393 234.083 410.653 233.597 410.995 233.178C411.338 232.759 411.755 232.415 412.225 232.165L445.88 219.977C446.349 219.726 446.86 219.574 447.385 219.532C447.91 219.489 448.437 219.556 448.937 219.729C449.039 219.764 449.139 219.803 449.236 219.845Z" fill="#CCCCCC"/>
<path id="Vector_15" d="M453.065 175.634C451.027 175.574 448.491 175.5 446.537 174.003C445.956 173.539 445.478 172.947 445.137 172.269C444.796 171.591 444.601 170.843 444.565 170.078C444.529 169.533 444.614 168.988 444.813 168.484C445.012 167.98 445.32 167.531 445.711 167.172C446.732 166.267 448.222 166.056 449.829 166.551L448.164 153.798L449.386 153.622L451.342 168.615L450.322 168.124C449.14 167.555 447.516 167.265 446.507 168.159C446.26 168.393 446.067 168.684 445.943 169.008C445.82 169.333 445.77 169.683 445.797 170.031C445.827 170.601 445.973 171.158 446.227 171.663C446.48 172.168 446.834 172.61 447.265 172.958C448.785 174.123 450.807 174.274 453.1 174.341L453.065 175.634Z" fill="#2F2E41"/>
<path id="Vector_16" d="M442.124 154.898H435.484V156.191H442.124V154.898Z" fill="#2F2E41"/>
<path id="Vector_17" d="M463.083 154.898H456.443V156.191H463.083V154.898Z" fill="#2F2E41"/>
<path id="face3" d="M296.672 218.468C314.893 218.468 329.663 202.977 329.663 183.868C329.663 164.759 314.893 149.268 296.672 149.268C278.451 149.268 263.68 164.759 263.68 183.868C263.68 202.977 278.451 218.468 296.672 218.468Z" fill="#6C63FF"/>
<path id="Vector_18" d="M281.705 165.238C277.854 164.285 273.696 163.004 270.95 159.824C268.612 157.118 267.515 152.94 269.587 149.731C271.479 146.801 275.211 145.726 278.351 145.177C282.002 144.538 285.754 144.445 289.18 142.815C290.862 142.017 292.329 140.796 293.453 139.26C294.496 137.724 295.401 136.09 296.156 134.38C296.873 132.713 297.83 131.171 298.994 129.81C300.317 128.45 302.024 127.576 303.86 127.318C307.993 126.659 311.917 128.662 315.169 131.15C318.318 133.606 321.175 136.449 323.679 139.619C329.364 146.725 333.277 155.2 335.068 164.284C335.308 165.506 337.091 164.989 336.851 163.769C335.139 155.172 331.583 147.097 326.453 140.156C323.912 136.695 320.993 133.558 317.756 130.81C314.405 127.979 310.536 125.511 306.129 125.277C304.091 125.153 302.056 125.577 300.218 126.508C298.529 127.442 297.107 128.831 296.099 130.531C294.022 133.835 293.02 138.103 289.67 140.337C286.276 142.601 282.027 142.623 278.178 143.253C274.753 143.813 270.941 144.996 268.623 147.88C266.059 151.07 266.156 155.417 268.071 158.935C270.199 162.844 274.152 164.978 278.123 166.249C279.142 166.576 280.176 166.852 281.213 167.108C282.37 167.395 282.864 165.525 281.705 165.238V165.238Z" fill="#2F2E41"/>
<path id="Vector_19" d="M295.264 195.421L295.229 194.127C297.523 194.061 299.545 193.91 301.064 192.745C301.495 192.397 301.849 191.955 302.102 191.449C302.356 190.944 302.502 190.388 302.532 189.818C302.559 189.47 302.509 189.12 302.385 188.795C302.262 188.471 302.069 188.18 301.822 187.947C300.813 187.053 299.19 187.342 298.007 187.911L296.987 188.402L298.943 173.409L300.165 173.585L298.501 186.338C300.108 185.842 301.597 186.056 302.617 186.959C303.009 187.318 303.316 187.767 303.515 188.27C303.714 188.774 303.799 189.319 303.764 189.863C303.728 190.629 303.533 191.377 303.192 192.056C302.851 192.734 302.373 193.326 301.791 193.79C299.839 195.286 297.302 195.361 295.264 195.421Z" fill="#2F2E41"/>
<path id="Vector_20" d="M312.845 174.684H306.205V175.977H312.845V174.684Z" fill="#2F2E41"/>
<path id="Vector_21" d="M291.886 174.684H285.246V175.977H291.886V174.684Z" fill="#2F2E41"/>
<path id="face2" d="M69.2051 262.43C87.4258 262.43 102.197 246.939 102.197 227.83C102.197 208.721 87.4258 193.23 69.2051 193.23C50.9845 193.23 36.2137 208.721 36.2137 227.83C36.2137 246.939 50.9845 262.43 69.2051 262.43Z" fill="#6C63FF"/>
<path id="Vector_22" d="M67.7967 239.383L67.7624 238.09C70.056 238.023 72.0781 237.872 73.5975 236.708C74.0283 236.359 74.3824 235.917 74.6357 235.412C74.889 234.906 75.0356 234.35 75.0655 233.78C75.0922 233.432 75.042 233.082 74.9187 232.757C74.7955 232.433 74.6025 232.142 74.3548 231.909C73.3462 231.015 71.7233 231.305 70.5403 231.873L69.5202 232.364L71.4764 217.371L72.6979 217.547L71.0339 230.3C72.6413 229.804 74.1306 230.018 75.1507 230.921C75.5423 231.28 75.8496 231.729 76.0486 232.232C76.2475 232.736 76.3327 233.281 76.2975 233.825C76.2615 234.591 76.0663 235.339 75.7255 236.018C75.3847 236.696 74.9066 237.288 74.3247 237.752C72.3725 239.248 69.8354 239.323 67.7967 239.383Z" fill="#2F2E41"/>
<path id="Vector_23" d="M85.3786 218.647H78.7386V219.94H85.3786V218.647Z" fill="#2F2E41"/>
<path id="Vector_24" d="M64.4196 218.647H57.7796V219.94H64.4196V218.647Z" fill="#2F2E41"/>
<path id="face1" d="M172.767 112.734C190.987 112.734 205.758 97.2432 205.758 78.134C205.758 59.0248 190.987 43.5337 172.767 43.5337C154.546 43.5337 139.775 59.0248 139.775 78.134C139.775 97.2432 154.546 112.734 172.767 112.734Z" fill="#CCCCCC"/>
<path id="Vector_25" d="M196.084 90.9297L196.05 89.6367C198.343 89.5698 200.366 89.4189 201.885 88.2547C202.316 87.9058 202.67 87.4638 202.923 86.9586C203.176 86.4535 203.323 85.897 203.353 85.3271C203.38 84.9789 203.329 84.6289 203.206 84.3043C203.083 83.9798 202.89 83.6894 202.642 83.4558C201.634 82.5618 200.011 82.8509 198.828 83.4204L197.808 83.911L199.764 68.9183L200.985 69.0938L199.321 81.8471C200.929 81.3515 202.418 81.5642 203.438 82.4683C203.83 82.827 204.137 83.2757 204.336 83.7795C204.535 84.2833 204.62 84.8285 204.585 85.3726C204.549 86.1383 204.354 86.8865 204.013 87.5647C203.672 88.243 203.194 88.8349 202.612 89.2989C200.66 90.7952 198.123 90.8697 196.084 90.9297Z" fill="#2F2E41"/>
<path id="Vector_26" d="M192.707 70.1937H186.067V71.4867H192.707V70.1937Z" fill="#2F2E41"/>
<path id="Vector_27" d="M192.268 41.4948C191.036 33.7912 186.383 27.1689 180.396 22.6983C174.527 18.3932 167.511 16.1436 160.35 16.2708C146.484 16.4308 132.927 24.5756 125.493 36.7972C117.257 50.3371 117.094 68.0185 122.662 82.6579C124.085 86.429 125.89 90.0293 128.045 93.3972C130.435 97.1112 133.33 100.388 136.146 103.742C141.394 109.993 147.411 118.687 143.894 127.409C142.595 130.631 139.855 133.56 136.368 133.791C133.424 133.986 130.16 132.509 128.855 129.607C127.393 126.356 129.417 122.508 132.408 121.178C135.546 119.782 138.806 121.841 139.965 125.008C140.541 126.466 140.56 128.1 140.02 129.573C139.904 129.797 139.874 130.058 139.936 130.305C139.997 130.551 140.146 130.764 140.351 130.899C140.563 131.028 140.815 131.063 141.052 130.998C141.289 130.933 141.492 130.772 141.616 130.552C142.239 128.92 142.374 127.128 142.004 125.414C141.634 123.699 140.776 122.144 139.544 120.952C138.293 119.696 136.659 118.945 134.931 118.833C133.203 118.721 131.493 119.255 130.104 120.34C127.172 122.586 125.622 126.606 127.108 130.233C128.394 133.374 131.507 135.271 134.65 135.671C136.384 135.85 138.132 135.556 139.726 134.816C141.319 134.076 142.702 132.916 143.741 131.45C146.059 128.266 147.11 124.264 146.671 120.284C145.642 110.358 138.081 103.571 132.404 96.3071C127.356 89.7979 123.799 82.1613 122.006 73.9846C120.17 65.9477 120.239 57.5619 122.205 49.5591C124.112 41.9711 128.031 35.1058 133.508 29.7595C138.765 24.6504 145.185 21.0428 152.152 19.2826C159.041 17.484 166.29 17.9467 172.92 20.608C179.869 23.4993 186.037 29.2201 188.976 36.5046C189.682 38.2718 190.188 40.1197 190.485 42.0104C190.681 43.2386 192.464 42.7177 192.268 41.4948H192.268Z" fill="#2F2E41"/>
<path id="Vector_28" d="M192.228 41.7869C195.315 38.6671 200.348 38.2172 204.069 40.3305C207.917 42.5163 209.461 47.2239 208.474 51.5802C207.967 54.0135 206.627 56.1671 204.707 57.6327C203.737 58.3408 204.66 60.0228 205.64 59.3074C209.803 56.2684 211.555 50.4119 210.135 45.3457C208.651 40.056 203.725 36.8981 198.58 37.1088C195.726 37.1882 193 38.3651 190.92 40.4154C190.061 41.2831 191.37 42.6535 192.228 41.7869Z" fill="#2F2E41"/>
<path id="Vector_29" d="M77.6066 205.97C81.5859 205.582 84.9174 202.819 86.6841 199.12C87.5862 197.206 88.0596 195.101 88.0681 192.966C88.0766 190.831 87.6201 188.722 86.7334 186.8C84.8582 182.769 81.7295 179.53 77.8632 177.615C73.3662 175.33 68.2876 174.698 63.3409 174.907C54.0194 175.302 43.7497 178.047 38.0195 186.382C35.324 190.163 34.1526 194.902 34.7578 199.58C35.4828 204.489 38.3317 208.74 41.3733 212.404C44.5612 216.245 48.2399 219.704 50.7594 224.104C52.9395 227.911 54.1122 232.705 52.6539 237.025C52.3062 238.049 51.79 239.001 51.1288 239.838C50.3747 240.792 51.676 242.172 52.4364 241.21C55.0599 237.889 55.5903 233.506 54.7642 229.375C53.8547 224.827 51.231 220.982 48.362 217.547C42.7795 210.863 34.4655 203.564 36.8119 193.579C37.9136 189.251 40.4207 185.461 43.9008 182.864C47.6322 180.027 52.0627 178.466 56.5646 177.618C65.1795 175.996 75.6121 176.165 82.1209 183.205C84.8261 186.131 86.6867 190.219 86.1884 194.368C85.739 198.109 83.4612 201.779 80.131 203.339C79.331 203.712 78.4784 203.946 77.6067 204.031C76.4316 204.145 76.4202 206.086 77.6067 205.97H77.6066Z" fill="#2F2E41"/>
</g>
</svg>
