<svg width="447" height="434" viewBox="0 0 447 434" fill="none" xmlns="http://www.w3.org/2000/svg">
<g id="undraw_Raining_re_4b55 1" clip-path="url(#clip0)">
<path id="Vector" d="M266.005 433.382H257.836C256.809 433.381 255.824 432.925 255.098 432.113C254.371 431.302 253.963 430.202 253.962 429.054V352.993C253.963 351.846 254.371 350.746 255.098 349.934C255.824 349.123 256.809 348.666 257.836 348.665H266.005C267.032 348.666 268.017 349.123 268.743 349.934C269.469 350.746 269.878 351.846 269.879 352.993V429.054C269.878 430.202 269.469 431.302 268.743 432.113C268.017 432.925 267.032 433.381 266.005 433.382Z" fill="#6C63FF"/>
<path id="Vector_2" d="M248.741 433.382H240.572C239.545 433.381 238.56 432.925 237.834 432.113C237.108 431.302 236.699 430.202 236.698 429.054V352.993C236.699 351.846 237.108 350.746 237.834 349.934C238.56 349.123 239.545 348.666 240.572 348.665H248.741C249.768 348.666 250.753 349.123 251.479 349.934C252.206 350.746 252.614 351.846 252.615 352.993V429.054C252.614 430.202 252.206 431.302 251.479 432.113C250.753 432.925 249.768 433.381 248.741 433.382Z" fill="#6C63FF"/>
<path id="Vector_3" d="M33.5967 187.251C31.9429 194.988 29.8539 196.829 27.8753 196.301C25.8967 195.773 24.7779 193.076 26.4316 185.34C28.0853 177.603 33.864 168.285 33.864 168.285C33.864 168.285 35.2504 179.515 33.5967 187.251Z" fill="#CCCCCC"/>
<path id="Vector_4" d="M29.1689 322.043C27.5152 329.779 25.4262 331.621 23.4476 331.093C21.469 330.565 20.3502 327.868 22.0039 320.132C23.6576 312.395 29.4363 303.077 29.4363 303.077C29.4363 303.077 30.8227 314.307 29.1689 322.043Z" fill="#CCCCCC"/>
<path id="Vector_5" d="M271.488 81.1363C271.488 81.1363 275.279 72.1775 269.154 69.8483C263.029 67.519 263.469 76.9018 263.469 76.9018L270.92 81.8416" fill="#3F3D56"/>
<path id="Vector_6" d="M142.788 107.495L130.093 118.992C130.093 118.992 320.537 190.494 342.258 204.679L340.114 184.643L322.121 160.159L287.267 135.32L231.005 115.767L169.692 91.1337L142.788 107.495Z" fill="#6C63FF"/>
<path id="Vector_7" d="M239.779 136.086L196.693 256.22C196.693 256.22 189.807 276.113 205.025 279.925C214.174 282.217 219.011 276.017 221.414 270.707C223.98 265.036 217.014 260.049 213.532 265.074C213.476 265.156 213.419 265.239 213.363 265.324C213.277 265.451 204.149 273.364 204.154 262.534C204.177 260.037 204.64 257.57 205.518 255.273L247.861 141.661L239.779 136.086Z" fill="#3F3D56"/>
<path id="umbrella" d="M267.115 76.0375C267.115 76.0375 254.991 74.0597 248.172 69.755C248.172 69.755 173.344 51.9622 130.14 118.339C130.14 118.339 333.532 170.937 342.304 204.025C342.304 204.025 355.07 142.793 287.447 86.2709C287.447 86.2709 270.903 79.8478 267.115 76.0375Z" fill="#3F3D56"/>
<path id="Vector_8" d="M36.4079 266.936C35.3988 271.656 34.1241 272.78 32.9168 272.458C31.7095 272.136 31.0268 270.49 32.0358 265.769C33.0449 261.048 36.571 255.363 36.571 255.363C36.571 255.363 37.417 262.215 36.4079 266.936Z" fill="#CCCCCC"/>
<path id="Vector_9" d="M4.86051 289.813C3.85141 294.534 2.5767 295.657 1.36939 295.335C0.162085 295.013 -0.520639 293.367 0.488451 288.647C1.49754 283.926 5.02364 278.24 5.02364 278.24C5.02364 278.24 5.86961 285.092 4.86051 289.813Z" fill="#CCCCCC"/>
<path id="Vector_10" d="M236.717 66.6804C235.064 74.4168 232.975 76.2582 230.996 75.7304C229.018 75.2025 227.899 72.5053 229.552 64.769C231.206 57.0326 236.985 47.7145 236.985 47.7145C236.985 47.7145 238.371 58.944 236.717 66.6804Z" fill="#CCCCCC"/>
<path id="Vector_11" d="M243.956 11.5729C242.947 16.2936 241.673 17.4172 240.465 17.0951C239.258 16.7731 238.575 15.1272 239.584 10.4065C240.593 5.68582 244.12 0 244.12 0C244.12 0 244.966 6.85228 243.956 11.5729Z" fill="#CCCCCC"/>
<path id="Vector_12" d="M212.409 34.4505C211.4 39.1712 210.125 40.2947 208.918 39.9727C207.711 39.6506 207.028 38.0047 208.037 33.284C209.046 28.5633 212.572 22.8775 212.572 22.8775C212.572 22.8775 213.418 29.7298 212.409 34.4505Z" fill="#CCCCCC"/>
<path id="Vector_13" d="M149.27 309.059C147.617 316.795 145.528 318.636 143.549 318.108C141.57 317.581 140.452 314.883 142.105 307.147C143.759 299.411 149.538 290.093 149.538 290.093C149.538 290.093 150.924 301.322 149.27 309.059Z" fill="#CCCCCC"/>
<path id="Vector_14" d="M156.509 253.951C155.5 258.672 154.226 259.795 153.018 259.473C151.811 259.151 151.128 257.505 152.137 252.785C153.146 248.064 156.672 242.378 156.672 242.378C156.672 242.378 157.518 249.23 156.509 253.951Z" fill="#CCCCCC"/>
<path id="Vector_15" d="M124.962 276.829C123.953 281.549 122.678 282.673 121.471 282.351C120.263 282.029 119.581 280.383 120.59 275.662C121.599 270.941 125.125 265.256 125.125 265.256C125.125 265.256 125.971 272.108 124.962 276.829Z" fill="#CCCCCC"/>
<path id="Vector_16" d="M116.616 78.4284C114.962 86.1647 112.873 88.0062 110.895 87.4783C108.916 86.9504 107.797 84.2532 109.451 76.5169C111.105 68.7805 116.883 59.4624 116.883 59.4624C116.883 59.4624 118.27 70.692 116.616 78.4284Z" fill="#CCCCCC"/>
<path id="Vector_17" d="M112.188 213.22C110.535 220.957 108.446 222.798 106.467 222.27C104.488 221.742 103.37 219.045 105.023 211.309C106.677 203.572 112.456 194.254 112.456 194.254C112.456 194.254 113.842 205.484 112.188 213.22Z" fill="#CCCCCC"/>
<path id="Vector_18" d="M119.427 158.113C118.418 162.833 117.143 163.957 115.936 163.635C114.729 163.313 114.046 161.667 115.055 156.946C116.064 152.226 119.59 146.54 119.59 146.54C119.59 146.54 120.436 153.392 119.427 158.113Z" fill="#CCCCCC"/>
<path id="Vector_19" d="M87.8799 180.99C86.8708 185.711 85.5961 186.835 84.3888 186.512C83.1815 186.19 82.4988 184.545 83.5079 179.824C84.517 175.103 88.0431 169.417 88.0431 169.417C88.0431 169.417 88.889 176.27 87.8799 180.99Z" fill="#CCCCCC"/>
<path id="Vector_20" d="M201.296 83.9932C199.642 91.7295 197.553 93.5709 195.575 93.0431C193.596 92.5152 192.477 89.818 194.131 82.0817C195.785 74.3453 201.563 65.0272 201.563 65.0272C201.563 65.0272 202.95 76.2567 201.296 83.9932Z" fill="#CCCCCC"/>
<path id="Vector_21" d="M196.868 218.785C195.214 226.521 193.125 228.363 191.147 227.835C189.168 227.307 188.049 224.61 189.703 216.874C191.357 209.137 197.136 199.819 197.136 199.819C197.136 199.819 198.522 211.049 196.868 218.785Z" fill="#CCCCCC"/>
<path id="Vector_22" d="M204.107 163.678C203.098 168.398 201.823 169.522 200.616 169.2C199.409 168.878 198.726 167.232 199.735 162.511C200.744 157.79 204.27 152.105 204.27 152.105C204.27 152.105 205.116 158.957 204.107 163.678Z" fill="#CCCCCC"/>
<path id="Vector_23" d="M279.888 109.962C278.234 117.699 276.145 119.54 274.166 119.012C272.188 118.484 271.069 115.787 272.723 108.051C274.376 100.314 280.155 90.9963 280.155 90.9963C280.155 90.9963 281.541 102.226 279.888 109.962Z" fill="#CCCCCC"/>
<path id="Vector_24" d="M255.579 77.7323C254.57 82.453 253.295 83.5766 252.088 83.2545C250.881 82.9324 250.198 81.2865 251.207 76.5658C252.216 71.8452 255.742 66.1593 255.742 66.1593C255.742 66.1593 256.588 73.0116 255.579 77.7323Z" fill="#CCCCCC"/>
<path id="Vector_25" d="M319.183 73.4819C317.53 81.2183 315.441 83.0597 313.462 82.5318C311.484 82.004 310.365 79.3068 312.018 71.5704C313.672 63.834 319.451 54.5159 319.451 54.5159C319.451 54.5159 320.837 65.7455 319.183 73.4819Z" fill="#CCCCCC"/>
<path id="Vector_26" d="M314.756 208.274C313.102 216.01 311.013 217.852 309.034 217.324C307.056 216.796 305.937 214.099 307.591 206.362C309.244 198.626 315.023 189.308 315.023 189.308C315.023 189.308 316.409 200.537 314.756 208.274Z" fill="#CCCCCC"/>
<path id="Vector_27" d="M321.995 153.166C320.986 157.887 319.711 159.011 318.504 158.688C317.296 158.366 316.614 156.721 317.623 152C318.632 147.279 322.158 141.593 322.158 141.593C322.158 141.593 323.004 148.446 321.995 153.166Z" fill="#CCCCCC"/>
<path id="Vector_28" d="M397.775 99.451C396.121 107.187 394.032 109.029 392.054 108.501C390.075 107.973 388.956 105.276 390.61 97.5395C392.264 89.8031 398.043 80.485 398.043 80.485C398.043 80.485 399.429 91.7145 397.775 99.451Z" fill="#CCCCCC"/>
<path id="Vector_29" d="M373.467 67.221C372.458 71.9417 371.183 73.0653 369.976 72.7432C368.768 72.4211 368.086 70.7753 369.095 66.0546C370.104 61.3339 373.63 55.648 373.63 55.648C373.63 55.648 374.476 62.5003 373.467 67.221Z" fill="#CCCCCC"/>
<path id="Vector_30" d="M365.121 161.9C363.467 169.637 361.378 171.478 359.4 170.95C357.421 170.422 356.302 167.725 357.956 159.989C359.61 152.253 365.388 142.934 365.388 142.934C365.388 142.934 366.775 154.164 365.121 161.9Z" fill="#CCCCCC"/>
<path id="Vector_31" d="M360.693 296.692C359.039 304.429 356.95 306.27 354.972 305.742C352.993 305.214 351.874 302.517 353.528 294.781C355.182 287.044 360.961 277.726 360.961 277.726C360.961 277.726 362.347 288.956 360.693 296.692Z" fill="#CCCCCC"/>
<path id="Vector_32" d="M367.932 241.585C366.923 246.305 365.648 247.429 364.441 247.107C363.234 246.785 362.551 245.139 363.56 240.418C364.569 235.698 368.095 230.012 368.095 230.012C368.095 230.012 368.941 236.864 367.932 241.585Z" fill="#CCCCCC"/>
<path id="Vector_33" d="M443.713 187.869C442.059 195.606 439.97 197.447 437.991 196.919C436.013 196.392 434.894 193.694 436.548 185.958C438.201 178.222 443.98 168.904 443.98 168.904C443.98 168.904 445.366 180.133 443.713 187.869Z" fill="#CCCCCC"/>
<path id="Vector_34" d="M419.404 155.64C418.395 160.36 417.12 161.484 415.913 161.162C414.706 160.84 414.023 159.194 415.032 154.473C416.041 149.752 419.567 144.067 419.567 144.067C419.567 144.067 420.413 150.919 419.404 155.64Z" fill="#CCCCCC"/>
<path id="Vector_35" d="M258.966 265.349C274.555 265.349 287.192 251.231 287.192 233.816C287.192 216.4 274.555 202.282 258.966 202.282C243.377 202.282 230.739 216.4 230.739 233.816C230.739 251.231 243.377 265.349 258.966 265.349Z" fill="#6C63FF"/>
<path id="Vector_36" d="M236.253 247.053C234.423 246.996 232.145 246.924 230.392 245.493C229.869 245.05 229.44 244.483 229.134 243.835C228.828 243.186 228.653 242.471 228.621 241.738C228.589 241.218 228.666 240.696 228.844 240.215C229.023 239.733 229.299 239.304 229.65 238.961C230.567 238.095 231.905 237.892 233.346 238.366L231.853 226.169L232.949 226.001L234.706 240.34L233.79 239.871C232.728 239.327 231.271 239.05 230.365 239.905C230.143 240.128 229.969 240.406 229.859 240.717C229.748 241.027 229.703 241.362 229.727 241.695C229.754 242.24 229.885 242.772 230.113 243.255C230.34 243.738 230.658 244.161 231.045 244.495C232.409 245.609 234.225 245.752 236.284 245.817L236.253 247.053Z" fill="#2F2E41"/>
<path id="Vector_37" d="M245.247 227.221H239.285V228.458H245.247V227.221Z" fill="#2F2E41"/>
<path id="Vector_38" d="M260.941 202.188C261.148 198.461 262.07 194.827 263.645 191.532C265.219 188.237 267.409 185.359 270.065 183.091C272.81 180.821 275.978 179.27 279.333 178.555C282.688 177.84 286.144 177.98 289.445 178.962C292.724 179.914 295.767 181.685 298.344 184.142C300.921 186.599 302.966 189.678 304.323 193.146C305.69 196.588 306.371 200.32 306.321 204.085C306.171 208.179 305.26 212.194 303.648 215.874C301.983 219.926 299.884 223.726 298.061 227.687C296.265 231.592 294.716 235.633 293.425 239.779C290.797 248.228 289.246 257.048 288.819 265.979C288.141 280.059 289.347 300.614 303.574 306.017C307.192 307.391 311.095 307.647 314.888 307.635C318.883 307.69 322.868 307.169 326.743 306.084C333.46 304.081 339.836 299.376 342.698 292.066C343.357 290.378 343.799 288.594 344.011 286.768C344.071 286.267 343.587 285.845 343.181 285.84C342.962 285.846 342.754 285.945 342.6 286.118C342.445 286.291 342.356 286.523 342.351 286.768C341.424 294.557 335.614 300.53 329.306 303.216C325.62 304.708 321.748 305.545 317.83 305.696C313.93 305.916 309.881 305.882 306.062 304.88C302.663 304.058 299.57 302.094 297.199 299.251C295.085 296.533 293.509 293.347 292.572 289.901C290.327 282.243 290.091 273.823 290.486 265.842C290.932 256.94 292.516 248.155 295.189 239.753C296.539 235.512 298.168 231.387 300.062 227.413C301.912 223.526 303.966 219.749 305.524 215.698C307.046 211.974 307.882 207.947 307.984 203.855C307.996 200.076 307.323 196.334 306.005 192.853C304.709 189.359 302.767 186.211 300.305 183.615C297.843 181.019 294.917 179.034 291.72 177.791C288.467 176.526 285.014 176.035 281.581 176.349C278.148 176.663 274.812 177.775 271.787 179.615C268.909 181.463 266.388 183.93 264.368 186.873C262.349 189.816 260.872 193.178 260.023 196.762C259.61 198.538 259.361 200.356 259.28 202.188C259.225 203.381 260.886 203.378 260.941 202.188L260.941 202.188Z" fill="#2F2E41"/>
<path id="Vector_39" d="M266.46 202.84C266.913 199.399 268.456 196.255 270.809 193.977C273.309 191.636 276.515 190.447 279.772 190.654C280.84 190.713 280.837 188.858 279.772 188.799C276.232 188.62 272.756 189.902 270.007 192.4C267.257 194.898 265.425 198.438 264.859 202.346C264.7 203.514 266.299 204.018 266.46 202.84Z" fill="#2F2E41"/>
<path id="Vector_40" d="M266.191 204.816L258.307 201.908C257.611 201.651 257.034 201.095 256.703 200.363C256.373 199.631 256.317 198.782 256.547 198.003C256.777 197.225 257.275 196.58 257.93 196.211C258.586 195.843 259.346 195.78 260.043 196.037L267.926 198.945C268.623 199.202 269.2 199.758 269.53 200.49C269.86 201.223 269.916 202.071 269.686 202.85C269.456 203.629 268.959 204.273 268.303 204.642C267.648 205.011 266.888 205.073 266.191 204.816Z" fill="#2F2E41"/>
<path id="Vector_41" d="M278.968 380.474H227.059C226.105 380.473 225.191 380.049 224.516 379.296C223.842 378.542 223.463 377.521 223.461 376.455V367.329C223.463 366.264 223.842 365.242 224.516 364.489C225.191 363.735 226.105 363.312 227.059 363.31H278.968C279.922 363.312 280.836 363.735 281.511 364.489C282.185 365.242 282.564 366.264 282.565 367.329V376.455C282.564 377.521 282.185 378.542 281.511 379.296C280.836 380.049 279.922 380.473 278.968 380.474Z" fill="#CCCCCC"/>
<path id="dress" d="M290.027 366.662C290.001 366.662 289.975 366.661 289.949 366.661L217.361 364.953C216.827 364.941 216.302 364.796 215.825 364.528C215.347 364.261 214.929 363.878 214.601 363.408C214.272 362.937 214.041 362.391 213.925 361.809C213.809 361.226 213.811 360.622 213.93 360.04L231.603 273.6C231.782 272.711 232.226 271.917 232.864 271.348C233.502 270.78 234.294 270.472 235.11 270.476H246.941C255.273 270.508 263.345 273.727 269.812 279.597C276.279 285.467 280.751 293.634 282.485 302.739L293.546 361.82C293.655 362.404 293.647 363.009 293.521 363.59C293.395 364.17 293.154 364.712 292.817 365.176C292.48 365.64 292.055 366.014 291.572 366.271C291.089 366.528 290.561 366.661 290.027 366.662V366.662Z" fill="#DF49E2"/>
<path id="Vector_42" d="M243.392 317.758C242.446 317.76 241.537 317.344 240.864 316.601L192.422 263.154C192.086 262.784 191.818 262.342 191.635 261.856C191.451 261.37 191.355 260.848 191.352 260.32C191.349 259.792 191.439 259.269 191.617 258.78C191.796 258.291 192.058 257.846 192.39 257.471L198.13 250.977C198.801 250.219 199.713 249.789 200.667 249.783C201.621 249.776 202.539 250.193 203.218 250.942L251.66 304.388C252.338 305.138 252.722 306.157 252.728 307.223C252.734 308.288 252.361 309.313 251.692 310.072L245.952 316.565C245.617 316.944 245.219 317.245 244.779 317.449C244.34 317.654 243.868 317.759 243.392 317.758Z" fill="#6C63FF"/>
<path id="Vector_43" d="M241.152 319.377L219.851 296.157C219.187 295.433 218.798 294.451 218.764 293.415C218.731 292.379 219.056 291.368 219.672 290.592L228.638 279.302C228.992 278.856 229.43 278.504 229.921 278.269C230.412 278.035 230.943 277.926 231.476 277.948C232.009 277.971 232.531 278.125 233.005 278.4C233.478 278.675 233.891 279.064 234.214 279.538L257.006 305.489C257.645 306.285 257.976 307.332 257.925 308.399C257.875 309.467 257.448 310.469 256.738 311.186L246.257 319.679C245.544 320.395 244.606 320.764 243.649 320.708C242.692 320.651 241.794 320.173 241.152 319.377Z" fill="#DE1CE2" fill-opacity="0.65"/>
</g>
<defs>
<clipPath id="clip0">
<rect width="447" height="434" fill="white"/>
</clipPath>
</defs>
</svg>
